<svg id="a08fb894-255a-409e-9143-c68982afcef5" data-name="Capa 1" xmlns="http://www.w3.org/2000/svg" width="978.6" height="752.8" viewBox="0 0 978.6 752.8">
  <defs>
    <style>
      .ac68d92f-3430-4034-b435-8772be1cd9cc {
        fill: #c1121f;
      }
    </style>
  </defs>
  <g>
    <g>
      <polygon class="ac68d92f-3430-4034-b435-8772be1cd9cc" points="338.8 752.8 413.5 710.2 414 263.9 338.8 263.9 338.8 752.8"/>
      <polygon class="ac68d92f-3430-4034-b435-8772be1cd9cc" points="639.9 752.8 564.6 710.2 564.6 263.9 639.9 263.9 639.9 752.8"/>
      <rect class="ac68d92f-3430-4034-b435-8772be1cd9cc" x="451.7" y="266.5" width="75.3" height="443.7"/>
    </g>
    <g>
      <path class="ac68d92f-3430-4034-b435-8772be1cd9cc" d="M989.3,425.5a150.6,150.6,0,0,1-296.5,37.3,154,154,0,0,1-4.1-24.6V412.7a149.1,149.1,0,0,1,4.3-25.2H839.3v75.3h-66a75.3,75.3,0,1,0,65.4-112.6H161.3a75.3,75.3,0,1,0,65.4,112.6h-66V387.5H307a151.4,151.4,0,0,1,4.3,25.4v25.2a155.3,155.3,0,0,1-4.1,24.7A150.6,150.6,0,1,1,161.3,274.9H838.7A150.6,150.6,0,0,1,989.3,425.5Z" transform="translate(-10.7 -123.6)"/>
      <path class="ac68d92f-3430-4034-b435-8772be1cd9cc" d="M311.8,425.5c0,4.2-.2,8.4-.5,12.6V412.9C311.6,417,311.8,421.3,311.8,425.5Z" transform="translate(-10.7 -123.6)"/>
      <path class="ac68d92f-3430-4034-b435-8772be1cd9cc" d="M688.2,425.5c0-4.3.2-8.5.5-12.8v25.5C688.4,434,688.2,429.8,688.2,425.5Z" transform="translate(-10.7 -123.6)"/>
    </g>
    <polygon class="ac68d92f-3430-4034-b435-8772be1cd9cc" points="225.5 113.3 375.5 113.3 375.7 38 225.5 75.3 225.5 113.3"/>
    <polygon class="ac68d92f-3430-4034-b435-8772be1cd9cc" points="753.1 113.3 603.1 113.3 602.9 38 753.1 75.3 753.1 113.3"/>
    <polyline class="ac68d92f-3430-4034-b435-8772be1cd9cc" points="414 113.3 564.1 113.3 564.1 38 488.8 0 488.8 0 414 38"/>
  </g>
</svg>
